<?xml version="1.0" standalone="no"?>
<!DOCTYPE svg PUBLIC "-//W3C//DTD SVG 20010904//EN"
 "http://www.w3.org/TR/2001/REC-SVG-20010904/DTD/svg10.dtd">
<svg version="1.0" xmlns="http://www.w3.org/2000/svg"
 width="700.000000pt" height="700.000000pt" viewBox="0 0 700.000000 700.000000"
 preserveAspectRatio="xMidYMid meet">
<metadata>
Created by potrace 1.11, written by Peter Selinger 2001-2013
</metadata>
<g transform="translate(0.000000,700.000000) scale(0.100000,-0.100000)"
fill="#000000" stroke="none">
<path d="M453 6989 c-165 -28 -311 -133 -388 -280 -70 -133 -65 109 -65 -3205
0 -2086 3 -3018 11 -3060 15 -85 78 -210 136 -268 66 -68 154 -123 238 -149
l70 -22 2155 0 c2064 0 2158 1 2215 18 191 59 332 201 379 383 14 55 16 197
16 1236 l0 1174 30 29 30 29 22 -21 c37 -33 68 -45 102 -39 25 5 172 146 739
714 389 389 722 730 741 758 141 209 152 490 28 729 -44 84 -187 233 -274 283
-202 119 -468 128 -673 25 -98 -50 -144 -90 -442 -387 l-303 -300 0 948 c0
1046 2 1007 -63 1131 -61 115 -193 220 -331 264 -46 14 -255 16 -2186 17
-1174 1 -2158 -2 -2187 -7z m4369 -247 c79 -39 129 -93 158 -169 20 -53 20
-77 20 -1106 l0 -1051 -290 -291 -290 -291 0 -47 c0 -38 6 -53 30 -79 l29 -33
-701 -701 -700 -701 -94 -419 -94 -419 -74 -75 c-41 -41 -78 -87 -81 -101 -9
-38 18 -95 54 -113 61 -32 86 -23 175 63 l81 79 390 87 c215 48 404 91 420 97
19 7 243 224 588 567 l557 556 0 -1058 c0 -1019 -1 -1059 -19 -1107 -30 -78
-81 -134 -159 -172 l-67 -33 -2105 -3 c-1527 -2 -2121 0 -2165 8 -33 7 -78 22
-101 35 -57 33 -118 103 -140 161 -19 48 -19 123 -19 3074 0 2951 0 3026 19
3074 21 55 80 124 134 158 78 48 6 47 2257 45 l2120 -2 67 -33z m1588 -1828
c52 -28 102 -83 122 -134 33 -85 26 -192 -17 -265 -13 -22 -274 -290 -579
-595 l-556 -555 -205 205 -205 205 557 558 c336 336 574 567 598 579 63 33 85
38 161 34 55 -2 82 -9 124 -32z m-1966 -2565 l-670 -670 -313 -70 c-172 -39
-314 -69 -316 -67 -2 2 27 143 66 313 l69 310 673 673 672 672 245 -245 245
-245 -671 -671z"/>
<path d="M1495 5890 c-126 -126 -232 -230 -235 -230 -3 0 -57 50 -120 110
l-114 110 -76 -75 -75 -75 190 -190 190 -190 310 309 310 310 -73 75 c-40 42
-73 76 -75 76 -1 0 -106 -103 -232 -230z"/>
<path d="M2440 5730 l0 -110 928 2 927 3 0 105 0 105 -927 3 -928 2 0 -110z"/>
<path d="M1493 4718 l-233 -233 -115 115 -115 115 -77 -78 -78 -77 190 -190
190 -190 312 312 313 313 -72 72 c-40 40 -75 73 -78 73 -3 0 -110 -105 -237
-232z"/>
<path d="M2440 4560 l0 -110 928 2 927 3 0 105 0 105 -927 3 -928 2 0 -110z"/>
<path d="M1493 3548 l-233 -233 -115 115 -115 115 -77 -78 -78 -77 190 -190
190 -190 312 312 313 313 -72 72 c-40 40 -75 73 -78 73 -3 0 -110 -105 -237
-232z"/>
<path d="M2440 3390 l0 -110 655 0 655 0 0 110 0 110 -655 0 -655 0 0 -110z"/>
<path d="M1493 2378 l-233 -233 -115 115 -115 115 -77 -78 -78 -77 190 -190
190 -190 312 312 313 313 -72 72 c-40 40 -75 73 -78 73 -3 0 -110 -105 -237
-232z"/>
<path d="M2440 2220 l0 -110 163 2 162 3 3 108 3 107 -166 0 -165 0 0 -110z"/>
<path d="M940 1020 l0 -110 110 0 110 0 0 110 0 110 -110 0 -110 0 0 -110z"/>
<path d="M1380 1020 l0 -110 110 0 111 0 -3 108 -3 107 -107 3 -108 3 0 -111z"/>
<path d="M1817 1123 c-4 -3 -7 -53 -7 -110 l0 -103 110 0 110 0 0 110 0 110
-103 0 c-57 0 -107 -3 -110 -7z"/>
<path d="M2250 1020 l0 -110 110 0 110 0 0 110 0 110 -110 0 -110 0 0 -110z"/>
</g>
</svg>
